<?xml version="1.0" encoding="UTF-8"?>
<svg width="240px" height="142px" viewBox="0 0 240 142" version="1.1" xmlns="http://www.w3.org/2000/svg" xmlns:xlink="http://www.w3.org/1999/xlink">
    <!-- Generator: Sketch 59 (86127) - https://sketch.com -->
    <title>空页面插画</title>
    <desc>Created with Sketch.</desc>
    <g id="缺省页" stroke="none" stroke-width="1" fill="none" fill-rule="evenodd">
        <g id="1-2-页面正在建设中" transform="translate(-720.000000, -252.000000)">
            <g id="空页面插画" transform="translate(720.000000, 253.000000)">
                <ellipse id="椭圆形-2" fill-opacity="0.0711593094" fill="#3296FA" cx="119.601562" cy="109.480188" rx="119.601562" ry="31.303125"></ellipse>
                <polygon id="路径-2" fill-opacity="0.02" fill="#3296FA" points="62.5097656 112.401869 223.40332 113.023938 169.345794 88.2897196"></polygon>
                <circle id="椭圆形" fill-opacity="0.12" fill="#3296FA" cx="14.7921875" cy="91.7921875" r="6.7921875"></circle>
                <circle id="椭圆形" fill-opacity="0.12" fill="#3296FA" cx="52.2703125" cy="113.023938" r="3.54375"></circle>
                <circle id="椭圆形备份-2" fill-opacity="0.12" fill="#3296FA" cx="145.884375" cy="128.084875" r="6.7921875"></circle>
                <circle id="椭圆形备份-2" fill-opacity="0.12" fill="#3296FA" cx="211.5" cy="114.5" r="6.5"></circle>
                <circle id="椭圆形备份" fill-opacity="0.12" fill="#3296FA" cx="221.779687" cy="91.761438" r="3.54375"></circle>
                <path d="M152.676562,41.3114502 C190.183557,34.4823486 202.685889,23.3250732 190.183557,7.83962402 C171.43006,-15.3885498 150.76626,67.0913086 232.920813,0.214562988" id="路径-7" stroke="#979797" stroke-width="0.590625" stroke-dasharray="2.953125089406967"></path>
                <path d="M95.4046282,20.886438 C97.4321592,20.886438 99.1984182,21.9783128 100.119893,23.592511 C103.72853,23.7402011 106.607812,26.6426805 106.607812,30.2015628 L106.605688,30.336438 L84.7564331,30.3368323 C84.7552717,30.2918802 84.7546875,30.2467881 84.7546875,30.2015628 C84.7546875,27.2937446 87.1697199,24.9364923 90.1488133,24.9364923 C90.71648,22.6146907 92.8537794,20.886438 95.4046282,20.886438 Z" id="形状结合" fill="#D6EFFF"></path>
                <g id="编组-2" transform="translate(60.000000, 21.000000)">
                    <path d="M11.2149533,67.2897196 L108.785047,67.2897196 L118.516777,88.2129404 C119.039205,89.3361589 118.552167,90.6702183 117.428948,91.1926455 C117.132642,91.3304625 116.809799,91.4018692 116.48301,91.4018692 L3.51698967,91.4018692 C2.27822014,91.4018692 1.27399902,90.397648 1.27399902,89.1588785 C1.27399902,88.8320894 1.34540566,88.509247 1.48322269,88.2129404 L11.2149533,67.2897196 L11.2149533,67.2897196 Z" id="矩形" fill="#1890FF"></path>
                    <path d="M45.1401869,81.8691589 L75.9813084,81.8691589 C76.7555394,81.8691589 77.3831776,82.4967971 77.3831776,83.271028 C77.3831776,84.045259 76.7555394,84.6728972 75.9813084,84.6728972 L45.1401869,84.6728972 C44.365956,84.6728972 43.7383178,84.045259 43.7383178,83.271028 C43.7383178,82.4967971 44.365956,81.8691589 45.1401869,81.8691589 Z" id="矩形" fill-opacity="0.7" fill="#E5EFFF"></path>
                    <path d="M13.4579439,0 L106.971963,0 C108.210732,-2.27558271e-16 109.214953,1.00422112 109.214953,2.24299065 L109.214953,67.2897196 L109.214953,67.2897196 L11.2149533,67.2897196 L11.2149533,2.24299065 C11.2149533,1.00422112 12.2191744,5.55662879e-15 13.4579439,0 Z" id="矩形" fill="#40A9FF"></path>
                </g>
                <g id="setting" transform="translate(104.000000, 40.000000)">
                    <rect id="矩形" fill="#000000" fill-rule="nonzero" opacity="0" x="0" y="0" width="32" height="32"></rect>
                    <path d="M28.9,19.553125 L26.853125,17.803125 C26.95,17.209375 27,16.603125 27,15.996875 C27,15.390625 26.95,14.784375 26.853125,14.190625 L28.9,12.440625 C29.215625,12.171875 29.33125,11.734375 29.190625,11.340625 L29.1625,11.259375 C28.596875,9.68125 27.759375,8.23125 26.671875,6.95 L26.615625,6.884375 C26.346875,6.56875 25.9125,6.45 25.51875,6.5875 L22.978125,7.490625 C22.040625,6.721875 20.99375,6.115625 19.8625,5.690625 L19.371875,3.034375 C19.296875,2.625 18.975,2.30625 18.565625,2.23125 L18.48125,2.215625 C16.853125,1.921875 15.140625,1.921875 13.5125,2.215625 L13.428125,2.23125 C13.01875,2.30625 12.696875,2.625 12.621875,3.034375 L12.128125,5.703125 C11.00625,6.128125 9.965625,6.73125 9.034375,7.496875 L6.475,6.5875 C6.084375,6.45 5.646875,6.565625 5.378125,6.884375 L5.321875,6.95 C4.234375,8.234375 3.396875,9.684375 2.83125,11.259375 L2.803125,11.340625 C2.6625,11.73125 2.778125,12.16875 3.09375,12.440625 L5.165625,14.209375 C5.06875,14.796875 5.021875,15.396875 5.021875,15.99375 C5.021875,16.59375 5.06875,17.19375 5.165625,17.778125 L3.09375,19.546875 C2.778125,19.815625 2.6625,20.253125 2.803125,20.646875 L2.83125,20.728125 C3.396875,22.303125 4.234375,23.75625 5.321875,25.0375 L5.378125,25.103125 C5.646875,25.41875 6.08125,25.5375 6.475,25.4 L9.034375,24.490625 C9.965625,25.25625 11.00625,25.8625 12.128125,26.284375 L12.621875,28.953125 C12.696875,29.3625 13.01875,29.68125 13.428125,29.75625 L13.5125,29.771875 C14.328125,29.91875 15.1625,29.99375 15.996875,29.99375 C16.83125,29.99375 17.66875,29.91875 18.48125,29.771875 L18.565625,29.75625 C18.975,29.68125 19.296875,29.3625 19.371875,28.953125 L19.8625,26.296875 C20.99375,25.871875 22.040625,25.26875 22.978125,24.496875 L25.51875,25.4 C25.909375,25.5375 26.346875,25.421875 26.615625,25.103125 L26.671875,25.0375 C27.759375,23.753125 28.596875,22.303125 29.1625,20.728125 L29.190625,20.646875 C29.33125,20.2625 29.215625,19.825 28.9,19.553125 L28.9,19.553125 Z M24.634375,14.559375 C24.7125,15.03125 24.753125,15.515625 24.753125,16 C24.753125,16.484375 24.7125,16.96875 24.634375,17.440625 L24.428125,18.69375 L26.7625,20.690625 C26.409375,21.50625 25.9625,22.275 25.43125,22.990625 L22.53125,21.9625 L21.55,22.76875 C20.803125,23.38125 19.971875,23.8625 19.071875,24.2 L17.88125,24.646875 L17.321875,27.678125 C16.44375,27.778125 15.546875,27.778125 14.665625,27.678125 L14.10625,24.640625 L12.925,24.1875 C12.034375,23.85 11.20625,23.36875 10.465625,22.759375 L9.484375,21.95 L6.565625,22.9875 C6.034375,22.271875 5.590625,21.5 5.234375,20.6875 L7.59375,18.671875 L7.390625,17.421875 C7.315625,16.95625 7.275,16.475 7.275,16 C7.275,15.521875 7.3125,15.04375 7.390625,14.578125 L7.59375,13.328125 L5.234375,11.3125 C5.5875,10.496875 6.034375,9.728125 6.565625,9.0125 L9.484375,10.05 L10.465625,9.240625 C11.20625,8.63125 12.034375,8.15 12.925,7.8125 L14.109375,7.365625 L14.66875,4.328125 C15.546875,4.228125 16.44375,4.228125 17.325,4.328125 L17.884375,7.359375 L19.075,7.80625 C19.971875,8.14375 20.80625,8.625 21.553125,9.2375 L22.534375,10.04375 L25.434375,9.015625 C25.965625,9.73125 26.409375,10.503125 26.765625,11.315625 L24.43125,13.3125 L24.634375,14.559375 Z M16,10.1875 C12.9625,10.1875 10.5,12.65 10.5,15.6875 C10.5,18.725 12.9625,21.1875 16,21.1875 C19.0375,21.1875 21.5,18.725 21.5,15.6875 C21.5,12.65 19.0375,10.1875 16,10.1875 Z M18.475,18.1625 C17.8125,18.821875 16.934375,19.1875 16,19.1875 C15.065625,19.1875 14.1875,18.821875 13.525,18.1625 C12.865625,17.5 12.5,16.621875 12.5,15.6875 C12.5,14.753125 12.865625,13.875 13.525,13.2125 C14.1875,12.55 15.065625,12.1875 16,12.1875 C16.934375,12.1875 17.8125,12.55 18.475,13.2125 C19.134375,13.875 19.5,14.753125 19.5,15.6875 C19.5,16.621875 19.134375,17.5 18.475,18.1625 Z" id="形状" fill-opacity="0.7" fill="#FFFFFF"></path>
                </g>
                <g id="树" transform="translate(16.000000, 41.000000)">
                    <rect id="矩形" fill="#CBB7A4" x="185" y="23" width="3" height="33"></rect>
                    <path d="M195,29.3345238 C195,16.4472222 190.970563,6 186,6 C181.029437,6 177,16.4472222 177,29.3345238 C177,42.2218254 195,42.2218254 195,29.3345238 Z" id="椭圆形" fill="#F49138"></path>
                    <rect id="矩形" fill="#CBB7A4" x="33" y="27" width="2" height="20"></rect>
                    <path d="M39,31.1421356 C39,23.3316498 36.7614237,17 34,17 C31.2385763,17 29,23.3316498 29,31.1421356 C29,38.9526215 39,38.9526215 39,31.1421356 Z" id="椭圆形" fill="#F3C191"></path>
                    <rect id="矩形" fill="#CBB7A4" x="8" y="41" width="3" height="33"></rect>
                    <path d="M19,31.1126984 C19,13.9296295 14.7467051,0 9.5,0 C4.25329488,0 0,13.9296295 0,31.1126984 C0,48.2957672 19,48.2957672 19,31.1126984 Z" id="椭圆形" fill="#F49138"></path>
                </g>
            </g>
        </g>
    </g>
</svg>