<?xml version="1.0" encoding="UTF-8"?>
<svg width="13px" height="12px" viewBox="0 0 13 12" version="1.1" xmlns="http://www.w3.org/2000/svg" xmlns:xlink="http://www.w3.org/1999/xlink">
    <!-- Generator: Sketch 59 (86127) - https://sketch.com -->
    <title>小组件/icon/export</title>
    <desc>Created with Sketch.</desc>
    <g id="花名册--new" stroke="none" stroke-width="1" fill="none" fill-rule="evenodd">
        <g id="1-1-班组列表" transform="translate(-1312.000000, -423.000000)">
            <g id="矩形" transform="translate(60.000000, 88.000000)">
                <g id="小组件/花名册/班组" transform="translate(324.000000, 306.000000)">
                    <g id="小组件/icon/进场">
                        <g transform="translate(926.000000, 27.000000)">
                            <g id="小组件/icon/export">
                                <rect id="矩形" fill="#000000" fill-rule="nonzero" opacity="0" x="0" y="0" width="16" height="16"></rect>
                                <path d="M13.8796875,11.834375 L13.0390625,11.834375 C12.9734375,11.834375 12.91875,11.8890625 12.91875,11.9546875 L12.91875,12.9203125 L3.0796875,12.9203125 L3.0796875,3.0796875 L12.9203125,3.0796875 L12.9203125,4.0453125 C12.9203125,4.1109375 12.975,4.165625 13.040625,4.165625 L13.88125,4.165625 C13.946875,4.165625 14.0015625,4.1125 14.0015625,4.0453125 L14.0015625,2.4796875 C14.0015625,2.2140625 13.7875,2 13.521875,2 L2.4796875,2 C2.2140625,2 2,2.2140625 2,2.4796875 L2,13.5203125 C2,13.7859375 2.2140625,14 2.4796875,14 L13.5203125,14 C13.7859375,14 14,13.7859375 14,13.5203125 L14,11.9546875 C14,11.8875 13.9453125,11.834375 13.8796875,11.834375 Z M6.76679688,7.9015625 L8.98398438,6.1515625 C9.06679688,6.0859375 9.18710938,6.1453125 9.18710938,6.25 L9.18710938,7.4375 L14.0933594,7.4375 C14.1621094,7.4375 14.2183594,7.49375 14.2183594,7.5625 L14.2183594,8.4375 C14.2183594,8.50625 14.1621094,8.5625 14.0933594,8.5625 L9.18710938,8.5625 L9.18710938,9.75 C9.18710938,9.8546875 9.06523438,9.9140625 8.98398438,9.8484375 L6.76679688,8.0984375 C6.70273438,8.0484375 6.70273438,7.9515625 6.76679688,7.9015625 L6.76679688,7.9015625 Z" id="形状" fill="#1890FF"></path>
                            </g>
                        </g>
                    </g>
                </g>
            </g>
        </g>
    </g>
</svg>