<?xml version="1.0" encoding="UTF-8"?>
<svg width="16px" height="16px" viewBox="0 0 16 16" version="1.1" xmlns="http://www.w3.org/2000/svg" xmlns:xlink="http://www.w3.org/1999/xlink">
    <!-- Generator: Sketch 59 (86127) - https://sketch.com -->
    <title>编组 2</title>
    <desc>Created with Sketch.</desc>
    <g id="花名册--new" stroke="none" stroke-width="1" fill="none" fill-rule="evenodd">
        <g id="1-1-班组列表" transform="translate(-84.000000, -174.000000)">
            <g id="矩形" transform="translate(60.000000, 88.000000)">
                <g id="大组件/花名册">
                    <g id="全部">
                        <g transform="translate(0.000000, 73.000000)">
                            <g id="编组-2" transform="translate(22.000000, 11.000000)">
                                <rect id="矩形" x="0" y="0" width="20" height="20"></rect>
                                <path d="M16.8924316,15.9114665 C17.0017904,15.9114665 17.2204915,16.0439372 17.1952637,16.16993 L17.1952637,17.3290771 C17.1784342,17.4298747 16.9849772,17.5390706 16.8924154,17.5390706 L2.80281576,17.5390706 C2.60094401,17.5390706 2.5,17.4298747 2.5,17.3290771 L2.5,16.1615316 C2.5,16.0607178 2.60094401,15.9114665 2.80281576,15.9114665 L3.61035156,15.9114665 L3.61035156,5.9895752 C3.61035156,5.72077637 3.77018229,5.46879069 4.01411133,5.35119629 L8.62373047,2.58190918 C8.88447266,2.47269694 9.17049154,2.47269694 9.43125,2.58190918 C9.73404948,2.69108887 9.73404948,2.89268392 9.73404948,4.25342611 L9.73404948,15.9114665 L10.5415853,15.9114665 L10.5415853,5.71237793 C10.5331706,4.38522949 10.692985,4.14164225 10.9453451,4.040861 C11.1724609,3.94006348 11.4248047,3.94006348 11.6519206,4.040861 L15.6811523,6.14076335 C15.9250814,6.25835775 16.0849121,6.49354655 16.0849121,6.76234538 L16.0849121,15.9114665 L16.8924316,15.9114665 Z M7.42926432,14.4648031 L7.45449219,13.4820557 C7.45449219,13.364445 7.36196289,13.2720622 7.24420573,13.2720622 L6.08339844,13.2720622 C5.965625,13.2720622 5.8730957,13.364445 5.8730957,13.4820394 L5.8730957,14.4648031 C5.8730957,14.5823975 5.965625,14.6747965 6.08338216,14.6747965 L7.21896159,14.6747965 C7.33673503,14.6747965 7.42924805,14.5823975 7.42924805,14.4648031 L7.42926432,14.4648031 Z M7.42926432,11.4997314 L7.45449219,10.5001709 C7.45449219,10.3825765 7.36196289,10.2901774 7.24420573,10.2901774 L6.08339844,10.2901774 C5.965625,10.2901774 5.8730957,10.3825765 5.8730957,10.5001709 L5.8730957,11.4997314 C5.8730957,11.6173258 5.965625,11.7097249 6.08338216,11.7097249 L7.21896159,11.7097249 C7.33673503,11.7097249 7.42924805,11.6173258 7.42924805,11.4997314 L7.42926432,11.4997314 Z M7.42926432,8.54305827 L7.45449219,7.53509928 C7.45449219,7.41750488 7.36196289,7.32510579 7.24420573,7.32510579 L6.08339844,7.32510579 C5.965625,7.32510579 5.8730957,7.41750488 5.8730957,7.53509928 L5.8730957,8.54305827 C5.8730957,8.66065267 5.965625,8.75305176 6.08338216,8.75305176 L7.21896159,8.75305176 C7.33673503,8.75305176 7.42924805,8.66065267 7.42924805,8.54305827 L7.42926432,8.54305827 Z M14.0660807,14.4564046 L14.0660807,13.4652425 C14.0660807,13.3476481 13.9735514,13.255249 13.8557943,13.255249 L12.694987,13.255249 C12.5772135,13.255249 12.4846842,13.3476481 12.4846842,13.4652425 L12.4846842,14.4564046 C12.4846842,14.573999 12.5772135,14.6663981 12.6949707,14.6663981 L13.855778,14.6663981 C13.9735514,14.6663981 14.0660807,14.573999 14.0660807,14.4564046 L14.0660807,14.4564046 Z M14.0660807,11.491333 L14.0660807,10.5001709 C14.0660807,10.3825765 13.9735514,10.2901774 13.8557943,10.2901774 L12.694987,10.2901774 C12.5772135,10.2901774 12.4846842,10.3825765 12.4846842,10.5001709 L12.4846842,11.491333 C12.4846842,11.6089274 12.5772135,11.7013265 12.6949707,11.7013265 L13.855778,11.7013265 C13.9735514,11.7013265 14.0660807,11.6089274 14.0660807,11.491333 L14.0660807,11.491333 Z M14.0660807,8.53465983 L14.0660807,7.53509928 C14.0660807,7.41750488 13.9735514,7.32510579 13.8557943,7.32510579 L12.694987,7.32510579 C12.5772135,7.32510579 12.4846842,7.41750488 12.4846842,7.53509928 L12.4846842,8.53465983 C12.4846842,8.65225423 12.5772135,8.74465332 12.6949707,8.74465332 L13.855778,8.74465332 C13.9735514,8.74465332 14.0660807,8.65225423 14.0660807,8.53465983 L14.0660807,8.53465983 Z" id="形状" fill="#3296FA" fill-rule="nonzero"></path>
                            </g>
                        </g>
                    </g>
                </g>
            </g>
        </g>
    </g>
</svg>