<?xml version="1.0" encoding="UTF-8"?>
<svg width="16px" height="16px" viewBox="0 0 16 16" version="1.1" xmlns="http://www.w3.org/2000/svg" xmlns:xlink="http://www.w3.org/1999/xlink">
    <!-- Generator: Sketch 59 (86127) - https://sketch.com -->
    <title>人员-实</title>
    <desc>Created with Sketch.</desc>
    <g id="花名册--new" stroke="none" stroke-width="1" fill="none" fill-rule="evenodd">
        <g id="1-1-班组列表" transform="translate(-108.000000, -293.000000)">
            <g id="矩形" transform="translate(60.000000, 88.000000)">
                <g id="大组件/花名册">
                    <g id="专业分包">
                        <g transform="translate(0.000000, 113.000000)">
                            <g id="班组" transform="translate(36.000000, 80.000000)">
                                <g id="人员-实" transform="translate(12.000000, 12.000000)">
                                    <rect id="矩形" x="0" y="0" width="16" height="16"></rect>
                                    <path d="M12.9179167,12.9454167 C12.3266667,12.7345833 11.47875,12.66125 10.9379167,12.5420833 C10.62625,12.4733333 10.1725,12.2991667 10.02125,12.1204167 C9.87,11.9370833 9.96166667,10.2458333 9.96166667,10.2458333 C9.96166667,10.2458333 10.24125,9.80583333 10.3925,9.42083333 C10.54375,9.03583333 10.70875,7.98166667 10.70875,7.98166667 C10.70875,7.98166667 11.0204167,7.98166667 11.1304167,7.43625 C11.2495833,6.84041667 11.4329167,6.59291667 11.41,6.14833333 C11.3870833,5.73583333 11.1716667,5.71291667 11.14875,5.71291667 C11.14875,5.71291667 11.3733333,5.08958333 11.4054167,3.76958333 C11.4420833,2.20666667 10.2458333,0.666666667 8,0.666666667 C5.75416667,0.666666667 4.5625,2.20208333 4.59458333,3.765 C4.62208333,5.08041667 4.85125,5.70833333 4.85125,5.70833333 C4.82833333,5.70833333 4.61291667,5.73125 4.59,6.14375 C4.56708333,6.58833333 4.755,6.82666667 4.86958333,7.4225 C4.97958333,7.96791667 5.29125,7.9725 5.29125,7.9725 C5.29125,7.9725 5.45625,9.03125 5.6075,9.41625 C5.75875,9.80583333 6.03833333,10.24125 6.03833333,10.24125 C6.03833333,10.24125 6.13,11.9325 5.97875,12.1158333 C5.8275,12.2991667 5.37375,12.46875 5.06208333,12.5375 C4.51666667,12.6566667 3.67333333,12.7345833 3.08208333,12.9454167 C2.49083333,13.15625 0.666666667,13.8666667 0.666666667,15.3333333 L15.3333333,15.3333333 C15.3333333,13.8666667 13.5091667,13.15625 12.9179167,12.9454167 L12.9179167,12.9454167 Z" id="路径" fill-opacity="0.6" fill="#1890FF"></path>
                                </g>
                            </g>
                        </g>
                    </g>
                </g>
            </g>
        </g>
    </g>
</svg>