<?xml version="1.0" encoding="UTF-8"?>
<svg width="12px" height="12px" viewBox="0 0 12 12" version="1.1" xmlns="http://www.w3.org/2000/svg" xmlns:xlink="http://www.w3.org/1999/xlink">
    <!-- Generator: Sketch 59 (86127) - https://sketch.com -->
    <title>app store</title>
    <desc>Created with Sketch.</desc>
    <g id="花名册--new" stroke="none" stroke-width="1" fill="none" fill-rule="evenodd">
        <g id="1-1-班组列表" transform="translate(-94.000000, -215.000000)" fill-rule="nonzero">
            <g id="矩形" transform="translate(60.000000, 88.000000)">
                <g id="大组件/花名册">
                    <g id="专业分包">
                        <g transform="translate(0.000000, 113.000000)">
                            <g id="参建单位">
                                <g id="app-store" transform="translate(32.000000, 12.000000)">
                                    <rect id="矩形" fill="#000000" opacity="0" x="0" y="0" width="16" height="16"></rect>
                                    <path d="M7.25,2.25 L2.5,2.25 C2.3625,2.25 2.25,2.3625 2.25,2.5 L2.25,7.25 C2.25,7.3875 2.3625,7.5 2.5,7.5 L7.25,7.5 C7.3875,7.5 7.5,7.3875 7.5,7.25 L7.5,2.5 C7.5,2.3625 7.3875,2.25 7.25,2.25 Z M13.5,2.25 L8.75,2.25 C8.6125,2.25 8.5,2.3625 8.5,2.5 L8.5,7.25 C8.5,7.3875 8.6125,7.5 8.75,7.5 L13.5,7.5 C13.6375,7.5 13.75,7.3875 13.75,7.25 L13.75,2.5 C13.75,2.3625 13.6375,2.25 13.5,2.25 Z M7.25,8.5 L2.5,8.5 C2.3625,8.5 2.25,8.6125 2.25,8.75 L2.25,13.5 C2.25,13.6375 2.3625,13.75 2.5,13.75 L7.25,13.75 C7.3875,13.75 7.5,13.6375 7.5,13.5 L7.5,8.75 C7.5,8.6125 7.3875,8.5 7.25,8.5 Z M13.5,8.5 L8.75,8.5 C8.6125,8.5 8.5,8.6125 8.5,8.75 L8.5,13.5 C8.5,13.6375 8.6125,13.75 8.75,13.75 L13.5,13.75 C13.6375,13.75 13.75,13.6375 13.75,13.5 L13.75,8.75 C13.75,8.6125 13.6375,8.5 13.5,8.5 Z" id="形状" fill-opacity="0.6" fill="#1890FF"></path>
                                </g>
                            </g>
                        </g>
                    </g>
                </g>
            </g>
        </g>
    </g>
</svg>